<svg width="20" height="20" viewBox="0 0 20 20" fill="none" xmlns="http://www.w3.org/2000/svg">
<g clip-path="url(#clip0_195_1762)">
<path d="M15.8333 2.50004H12.35C12 1.53337 11.0833 0.833374 10 0.833374C8.91667 0.833374 8 1.53337 7.65 2.50004H4.16667C3.25 2.50004 2.5 3.25004 2.5 4.16671V15.8334C2.5 16.75 3.25 17.5 4.16667 17.5H15.8333C16.75 17.5 17.5 16.75 17.5 15.8334V4.16671C17.5 3.25004 16.75 2.50004 15.8333 2.50004ZM10 2.50004C10.4583 2.50004 10.8333 2.87504 10.8333 3.33337C10.8333 3.79171 10.4583 4.16671 10 4.16671C9.54167 4.16671 9.16667 3.79171 9.16667 3.33337C9.16667 2.87504 9.54167 2.50004 10 2.50004ZM10.8333 14.1667H6.66667C6.20833 14.1667 5.83333 13.7917 5.83333 13.3334C5.83333 12.875 6.20833 12.5 6.66667 12.5H10.8333C11.2917 12.5 11.6667 12.875 11.6667 13.3334C11.6667 13.7917 11.2917 14.1667 10.8333 14.1667ZM13.3333 10.8334H6.66667C6.20833 10.8334 5.83333 10.4584 5.83333 10C5.83333 9.54171 6.20833 9.16671 6.66667 9.16671H13.3333C13.7917 9.16671 14.1667 9.54171 14.1667 10C14.1667 10.4584 13.7917 10.8334 13.3333 10.8334ZM13.3333 7.50004H6.66667C6.20833 7.50004 5.83333 7.12504 5.83333 6.66671C5.83333 6.20837 6.20833 5.83337 6.66667 5.83337H13.3333C13.7917 5.83337 14.1667 6.20837 14.1667 6.66671C14.1667 7.12504 13.7917 7.50004 13.3333 7.50004Z" fill="#6E8BB7"/>
</g>
<defs>
<clipPath id="clip0_195_1762">
<rect width="20" height="20" fill="white"/>
</clipPath>
</defs>
</svg>
