<svg width="32" height="32" viewBox="0 0 32 32" fill="none" xmlns="http://www.w3.org/2000/svg">
<g clip-path="url(#clip0_88_4943)">
<path d="M25.2267 8.01335C24.96 7.22669 24.2133 6.66669 23.3333 6.66669H8.66667C7.78667 6.66669 7.05333 7.22669 6.77333 8.01335L4.14667 15.5734C4.05333 15.8534 4 16.1467 4 16.4534V26C4 27.1067 4.89333 28 6 28C7.10667 28 8 27.1067 8 26V25.3334H24V26C24 27.0934 24.8933 28 26 28C27.0933 28 28 27.1067 28 26V16.4534C28 16.16 27.9467 15.8534 27.8533 15.5734L25.2267 8.01335ZM8.66667 21.3334C7.56 21.3334 6.66667 20.44 6.66667 19.3334C6.66667 18.2267 7.56 17.3334 8.66667 17.3334C9.77333 17.3334 10.6667 18.2267 10.6667 19.3334C10.6667 20.44 9.77333 21.3334 8.66667 21.3334ZM23.3333 21.3334C22.2267 21.3334 21.3333 20.44 21.3333 19.3334C21.3333 18.2267 22.2267 17.3334 23.3333 17.3334C24.44 17.3334 25.3333 18.2267 25.3333 19.3334C25.3333 20.44 24.44 21.3334 23.3333 21.3334ZM6.66667 14.6667L8.36 9.57335C8.54667 9.04002 9.05333 8.66669 9.62667 8.66669H22.3733C22.9467 8.66669 23.4533 9.04002 23.64 9.57335L25.3333 14.6667H6.66667Z" fill="#4094F7"/>
</g>
<defs>
<clipPath id="clip0_88_4943">
<rect width="32" height="32" fill="white"/>
</clipPath>
</defs>
</svg>
