<svg width="24" height="24" viewBox="0 0 24 24" fill="none" xmlns="http://www.w3.org/2000/svg">
<path d="M13.4142 13.4142C13.0391 13.7893 12.5304 14 12 14C11.4696 14 10.9609 13.7893 10.5858 13.4142C10.2107 13.0391 10 12.5304 10 12C10 11.4696 10.2107 10.9609 10.5858 10.5858C10.9609 10.2107 11.4696 10 12 10C12.5304 10 13.0391 10.2107 13.4142 10.5858C13.7893 10.9609 14 11.4696 14 12C14 12.5304 13.7893 13.0391 13.4142 13.4142Z" fill="white"/>
<path d="M13.4142 13.4142C13.0391 13.7893 12.5304 14 12 14C11.4696 14 10.9609 13.7893 10.5858 13.4142C10.2107 13.0391 10 12.5304 10 12C10 11.4696 10.2107 10.9609 10.5858 10.5858C10.9609 10.2107 11.4696 10 12 10C12.5304 10 13.0391 10.2107 13.4142 10.5858C13.7893 10.9609 14 11.4696 14 12C14 12.5304 13.7893 13.0391 13.4142 13.4142Z" fill="#6E8BB7" fill-opacity="0.7"/>
<path fill-rule="evenodd" clip-rule="evenodd" d="M12 5C7.52201 5 3.73201 7.943 2.45801 12C3.73201 16.057 7.52201 19 12 19C16.478 19 20.268 16.057 21.542 12C20.268 7.943 16.478 5 12 5ZM14.8284 14.8284C15.5786 14.0783 16 13.0609 16 12C16 10.9391 15.5786 9.92172 14.8284 9.17157C14.0783 8.42143 13.0609 8 12 8C10.9391 8 9.92173 8.42143 9.17158 9.17157C8.42143 9.92172 8.00001 10.9391 8.00001 12C8.00001 13.0609 8.42143 14.0783 9.17158 14.8284C9.92173 15.5786 10.9391 16 12 16C13.0609 16 14.0783 15.5786 14.8284 14.8284Z" fill="white"/>
<path fill-rule="evenodd" clip-rule="evenodd" d="M12 5C7.52201 5 3.73201 7.943 2.45801 12C3.73201 16.057 7.52201 19 12 19C16.478 19 20.268 16.057 21.542 12C20.268 7.943 16.478 5 12 5ZM14.8284 14.8284C15.5786 14.0783 16 13.0609 16 12C16 10.9391 15.5786 9.92172 14.8284 9.17157C14.0783 8.42143 13.0609 8 12 8C10.9391 8 9.92173 8.42143 9.17158 9.17157C8.42143 9.92172 8.00001 10.9391 8.00001 12C8.00001 13.0609 8.42143 14.0783 9.17158 14.8284C9.92173 15.5786 10.9391 16 12 16C13.0609 16 14.0783 15.5786 14.8284 14.8284Z" fill="#6E8BB7" fill-opacity="0.7"/>
</svg>
