<svg width="20" height="20" viewBox="0 0 20 20" fill="none" xmlns="http://www.w3.org/2000/svg">
<g clip-path="url(#clip0_195_1775)">
<path d="M11.05 2.49998C6.80832 2.38331 3.33332 5.79165 3.33332 9.99998H1.84165C1.46665 9.99998 1.28332 10.45 1.54998 10.7083L3.87498 13.0416C4.04165 13.2083 4.29998 13.2083 4.46665 13.0416L6.79165 10.7083C7.04998 10.45 6.86665 9.99998 6.49165 9.99998H4.99998C4.99998 6.74998 7.64999 4.12498 10.9167 4.16665C14.0167 4.20831 16.625 6.81665 16.6667 9.91664C16.7083 13.175 14.0833 15.8333 10.8333 15.8333C9.49165 15.8333 8.24999 15.375 7.26665 14.6C6.93332 14.3416 6.46665 14.3666 6.16665 14.6666C5.81665 15.0166 5.84165 15.6083 6.23332 15.9083C7.49999 16.9083 9.09165 17.5 10.8333 17.5C15.0417 17.5 18.45 14.025 18.3333 9.78331C18.225 5.87498 14.9583 2.60831 11.05 2.49998ZM10.625 6.66665C10.2833 6.66665 9.99998 6.94998 9.99998 7.29165V10.3583C9.99998 10.65 10.1583 10.925 10.4083 11.075L13.0083 12.6166C13.3083 12.7916 13.6917 12.6916 13.8667 12.4C14.0417 12.1 13.9417 11.7166 13.65 11.5416L11.25 10.1166V7.28331C11.25 6.94998 10.9667 6.66665 10.625 6.66665Z" fill="#6E8BB7"/>
</g>
<defs>
<clipPath id="clip0_195_1775">
<rect width="20" height="20" fill="white"/>
</clipPath>
</defs>
</svg>
