<svg width="32" height="32" viewBox="0 0 32 32" fill="none" xmlns="http://www.w3.org/2000/svg">
<g clip-path="url(#clip0_88_4935)">
<path d="M16.0001 29.3333C17.4667 29.3333 18.6667 28.1333 18.6667 26.6666H13.3334C13.3334 28.1333 14.5201 29.3333 16.0001 29.3333ZM24.0001 21.3333V14.6666C24.0001 10.5733 21.8134 7.14665 18.0001 6.23998V5.33331C18.0001 4.22665 17.1067 3.33331 16.0001 3.33331C14.8934 3.33331 14.0001 4.22665 14.0001 5.33331V6.23998C10.1734 7.14665 8.00007 10.56 8.00007 14.6666V21.3333L6.28007 23.0533C5.44007 23.8933 6.02674 25.3333 7.2134 25.3333H24.7734C25.9601 25.3333 26.5601 23.8933 25.7201 23.0533L24.0001 21.3333Z" fill="#4094F7"/>
</g>
<defs>
<clipPath id="clip0_88_4935">
<rect width="32" height="32" fill="white"/>
</clipPath>
</defs>
</svg>
