<svg width="20" height="20" viewBox="0 0 20 20" fill="none" xmlns="http://www.w3.org/2000/svg">
<g clip-path="url(#clip0_195_1779)">
<path d="M16.1917 10.8166C16.225 10.55 16.25 10.2833 16.25 9.99996C16.25 9.71663 16.225 9.44996 16.1917 9.18329L17.95 7.80829C18.1083 7.68329 18.15 7.45829 18.05 7.27496L16.3833 4.39163C16.2833 4.20829 16.0583 4.14163 15.875 4.20829L13.8 5.04163C13.3667 4.70829 12.9 4.43329 12.3917 4.22496L12.075 2.01663C12.05 1.81663 11.875 1.66663 11.6667 1.66663H8.33332C8.12499 1.66663 7.94999 1.81663 7.92499 2.01663L7.60832 4.22496C7.09999 4.43329 6.63332 4.71663 6.19999 5.04163L4.12499 4.20829C3.93332 4.13329 3.71666 4.20829 3.61666 4.39163L1.94999 7.27496C1.84165 7.45829 1.89165 7.68329 2.04999 7.80829L3.80832 9.18329C3.77499 9.44996 3.74999 9.72496 3.74999 9.99996C3.74999 10.275 3.77499 10.55 3.80832 10.8166L2.04999 12.1916C1.89165 12.3166 1.84999 12.5416 1.94999 12.725L3.61666 15.6083C3.71666 15.7916 3.94165 15.8583 4.12499 15.7916L6.19999 14.9583C6.63332 15.2916 7.09999 15.5666 7.60832 15.775L7.92499 17.9833C7.94999 18.1833 8.12499 18.3333 8.33332 18.3333H11.6667C11.875 18.3333 12.05 18.1833 12.075 17.9833L12.3917 15.775C12.9 15.5666 13.3667 15.2833 13.8 14.9583L15.875 15.7916C16.0667 15.8666 16.2833 15.7916 16.3833 15.6083L18.05 12.725C18.15 12.5416 18.1083 12.3166 17.95 12.1916L16.1917 10.8166ZM9.99999 12.9166C8.39165 12.9166 7.08332 11.6083 7.08332 9.99996C7.08332 8.39163 8.39165 7.08329 9.99999 7.08329C11.6083 7.08329 12.9167 8.39163 12.9167 9.99996C12.9167 11.6083 11.6083 12.9166 9.99999 12.9166Z" fill="#6E8BB7"/>
</g>
<defs>
<clipPath id="clip0_195_1779">
<rect width="20" height="20" fill="white"/>
</clipPath>
</defs>
</svg>
