<svg width="32" height="32" viewBox="0 0 32 32" fill="none" xmlns="http://www.w3.org/2000/svg">
<path d="M29.2149 7.43636V2.86136C29.2149 2.22922 28.7041 1.71851 28.072 1.71851H3.92915C3.29701 1.71851 2.78629 2.22922 2.78629 2.86136V7.43636C2.18987 7.47208 1.71487 7.9685 1.71487 8.57565V13.2792C1.71258 14.1437 1.88761 14.9994 2.22915 15.7935C2.38272 16.1578 2.57201 16.5006 2.78629 16.8256V29.1471C2.78629 29.7756 3.29701 30.2899 3.92915 30.2899H28.072C28.7041 30.2899 29.2149 29.7792 29.2149 29.1471V16.8256C29.4325 16.4998 29.6191 16.1543 29.772 15.7935C30.1113 14.9971 30.2863 14.1506 30.2863 13.2792V8.57565C30.2863 7.9685 29.8113 7.47208 29.2149 7.43636ZM5.35772 4.28993H26.6434V7.43279H5.35772V4.28993ZM18.2863 27.7221H13.7149V24.0042H18.2863V27.7221ZM26.6434 27.7221H20.572V22.8614C20.572 22.2292 20.0613 21.7185 19.4291 21.7185H12.572C11.9399 21.7185 11.4292 22.2292 11.4292 22.8614V27.7221H5.35772V19.0721C5.46129 19.1221 5.56844 19.1721 5.67915 19.2149C6.47558 19.5506 7.32201 19.7185 8.19344 19.7185C9.06487 19.7185 9.90772 19.5506 10.7077 19.2149C11.2006 19.0078 11.6649 18.7435 12.0899 18.4256C12.097 18.4221 12.1042 18.4221 12.1113 18.4256C12.5376 18.7449 13.0019 19.01 13.4934 19.2149C14.2899 19.5506 15.1363 19.7185 16.0077 19.7185C16.8792 19.7185 17.722 19.5506 18.522 19.2149C19.0149 19.0078 19.4791 18.7435 19.9042 18.4256C19.9113 18.4221 19.9184 18.4221 19.9256 18.4256C20.3519 18.7449 20.8162 19.01 21.3077 19.2149C22.1041 19.5506 22.9506 19.7185 23.822 19.7185C24.6934 19.7185 25.5363 19.5506 26.3363 19.2149C26.4434 19.1685 26.5506 19.1221 26.6577 19.0721V27.7221H26.6434ZM27.7149 13.2792C27.7149 15.4149 25.9649 17.1471 23.8113 17.1471C22.3542 17.1471 21.0827 16.3578 20.4113 15.1864C20.3077 15.0078 20.122 14.8971 19.9149 14.8971H19.8934C19.6899 14.8971 19.5006 15.0078 19.397 15.1864C19.0544 15.7839 18.5596 16.2801 17.9631 16.6245C17.3665 16.9689 16.6894 17.1492 16.0006 17.1471C14.547 17.1471 13.2792 16.3614 12.6077 15.1935C12.5006 15.0114 12.3077 14.8971 12.097 14.8971C11.8863 14.8971 11.6899 15.0114 11.5863 15.1935C11.2417 15.7888 10.7463 16.2828 10.15 16.6257C9.55378 16.9687 8.87771 17.1485 8.18987 17.1471C6.03629 17.1471 4.28629 15.4149 4.28629 13.2792V10.0221C4.28629 10.0114 4.29344 10.0042 4.30415 10.0042H27.697C27.7077 10.0042 27.7149 10.0114 27.7149 10.0221V13.2792Z" fill="#4094F7"/>
</svg>
