<svg width="20" height="20" viewBox="0 0 20 20" fill="none" xmlns="http://www.w3.org/2000/svg">
<g clip-path="url(#clip0_195_1758)">
<path d="M18.3333 7.5H14.3417L10.6833 2.025C10.35 1.53333 9.62501 1.53333 9.30001 2.025L5.64168 7.5H1.66668C1.20834 7.5 0.833344 7.875 0.833344 8.33333C0.833344 8.40833 0.841677 8.48333 0.866677 8.55833L2.98334 16.2833C3.17501 16.9833 3.81668 17.5 4.58334 17.5H15.4167C16.1833 17.5 16.825 16.9833 17.025 16.2833L19.1417 8.55833L19.1667 8.33333C19.1667 7.875 18.7917 7.5 18.3333 7.5ZM9.99168 3.99167L12.3333 7.5H7.65001L9.99168 3.99167ZM10 14.1667C9.08334 14.1667 8.33334 13.4167 8.33334 12.5C8.33334 11.5833 9.08334 10.8333 10 10.8333C10.9167 10.8333 11.6667 11.5833 11.6667 12.5C11.6667 13.4167 10.9167 14.1667 10 14.1667Z" fill="#6E8BB7"/>
</g>
<defs>
<clipPath id="clip0_195_1758">
<rect width="20" height="20" fill="white"/>
</clipPath>
</defs>
</svg>
