<svg width="20" height="20" viewBox="0 0 20 20" fill="none" xmlns="http://www.w3.org/2000/svg">
<g clip-path="url(#clip0_195_1766)">
<path d="M4.16667 5.00004H15.8333C16.2917 5.00004 16.6667 4.62504 16.6667 4.16671C16.6667 3.70837 16.2917 3.33337 15.8333 3.33337H4.16667C3.70833 3.33337 3.33333 3.70837 3.33333 4.16671C3.33333 4.62504 3.70833 5.00004 4.16667 5.00004ZM16.8 6.50004C16.725 6.11671 16.3833 5.83337 15.9833 5.83337H4.01667C3.61667 5.83337 3.275 6.11671 3.2 6.50004L2.36667 10.6667C2.26667 11.1834 2.65833 11.6667 3.18333 11.6667H3.33333V15.8334C3.33333 16.2917 3.70833 16.6667 4.16667 16.6667H10.8333C11.2917 16.6667 11.6667 16.2917 11.6667 15.8334V11.6667H15V15.8334C15 16.2917 15.375 16.6667 15.8333 16.6667C16.2917 16.6667 16.6667 16.2917 16.6667 15.8334V11.6667H16.8167C17.3417 11.6667 17.7333 11.1834 17.6333 10.6667L16.8 6.50004ZM10 15H5V11.6667H10V15Z" fill="#6E8BB7"/>
</g>
<defs>
<clipPath id="clip0_195_1766">
<rect width="20" height="20" fill="white"/>
</clipPath>
</defs>
</svg>
