<svg width="20" height="20" viewBox="0 0 20 20" fill="none" xmlns="http://www.w3.org/2000/svg">
<g clip-path="url(#clip0_195_1754)">
<path d="M13.75 9.99996C14.9 9.99996 15.825 9.06663 15.825 7.91663C15.825 6.76663 14.9 5.83329 13.75 5.83329C12.6 5.83329 11.6667 6.76663 11.6667 7.91663C11.6667 9.06663 12.6 9.99996 13.75 9.99996ZM7.50002 9.16663C8.88336 9.16663 9.99169 8.04996 9.99169 6.66663C9.99169 5.28329 8.88336 4.16663 7.50002 4.16663C6.11669 4.16663 5.00002 5.28329 5.00002 6.66663C5.00002 8.04996 6.11669 9.16663 7.50002 9.16663ZM13.75 11.6666C12.225 11.6666 9.16669 12.4333 9.16669 13.9583V15C9.16669 15.4583 9.54169 15.8333 10 15.8333H17.5C17.9584 15.8333 18.3334 15.4583 18.3334 15V13.9583C18.3334 12.4333 15.275 11.6666 13.75 11.6666ZM7.50002 10.8333C5.55835 10.8333 1.66669 11.8083 1.66669 13.75V15C1.66669 15.4583 2.04169 15.8333 2.50002 15.8333H7.50002V13.9583C7.50002 13.25 7.77502 12.0083 9.47502 11.0666C8.75002 10.9166 8.05002 10.8333 7.50002 10.8333Z" fill="#6E8BB7"/>
</g>
<defs>
<clipPath id="clip0_195_1754">
<rect width="20" height="20" fill="white"/>
</clipPath>
</defs>
</svg>
