<svg width="24" height="24" viewBox="0 0 24 24" fill="none" xmlns="http://www.w3.org/2000/svg">
<path fill-rule="evenodd" clip-rule="evenodd" d="M12 11C12.7956 11 13.5587 10.6839 14.1213 10.1213C14.6839 9.55871 15 8.79565 15 8C15 7.20435 14.6839 6.44129 14.1213 5.87868C13.5587 5.31607 12.7956 5 12 5C11.2044 5 10.4413 5.31607 9.87868 5.87868C9.31607 6.44129 9 7.20435 9 8C9 8.79565 9.31607 9.55871 9.87868 10.1213C10.4413 10.6839 11.2044 11 12 11ZM5 20C5 19.0807 5.18106 18.1705 5.53284 17.3212C5.88463 16.4719 6.40024 15.7003 7.05025 15.0503C7.70026 14.4002 8.47194 13.8846 9.32122 13.5328C10.1705 13.1811 11.0807 13 12 13C12.9193 13 13.8295 13.1811 14.6788 13.5328C15.5281 13.8846 16.2997 14.4002 16.9497 15.0503C17.5998 15.7003 18.1154 16.4719 18.4672 17.3212C18.8189 18.1705 19 19.0807 19 20H5Z" fill="#6E8BB7"/>
</svg>
