<svg width="32" height="32" viewBox="0 0 32 32" fill="none" xmlns="http://www.w3.org/2000/svg">
<path d="M14.6667 10.6667C14.6667 11.7276 14.2452 12.745 13.4951 13.4951C12.7449 14.2453 11.7275 14.6667 10.6667 14.6667C9.6058 14.6667 8.58839 14.2453 7.83824 13.4951C7.08809 12.745 6.66667 11.7276 6.66667 10.6667C6.66667 9.60582 7.08809 8.58841 7.83824 7.83826C8.58839 7.08811 9.6058 6.66669 10.6667 6.66669C11.7275 6.66669 12.7449 7.08811 13.4951 7.83826C14.2452 8.58841 14.6667 9.60582 14.6667 10.6667ZM25.3333 10.6667C25.3333 11.192 25.2299 11.7121 25.0289 12.1974C24.8278 12.6827 24.5332 13.1237 24.1618 13.4951C23.7903 13.8665 23.3494 14.1612 22.8641 14.3622C22.3788 14.5632 21.8586 14.6667 21.3333 14.6667C20.808 14.6667 20.2879 14.5632 19.8026 14.3622C19.3173 14.1612 18.8763 13.8665 18.5049 13.4951C18.1335 13.1237 17.8388 12.6827 17.6378 12.1974C17.4368 11.7121 17.3333 11.192 17.3333 10.6667C17.3333 9.60582 17.7548 8.58841 18.5049 7.83826C19.2551 7.08811 20.2725 6.66669 21.3333 6.66669C22.3942 6.66669 23.4116 7.08811 24.1618 7.83826C24.9119 8.58841 25.3333 9.60582 25.3333 10.6667ZM19.9067 25.3334C19.968 24.8974 20 24.4534 20 24C20.0031 21.9052 19.2983 19.8707 18 18.2267C19.0134 17.6416 20.1631 17.3335 21.3333 17.3335C22.5035 17.3335 23.6531 17.6415 24.6666 18.2266C25.68 18.8117 26.5216 19.6533 27.1068 20.6667C27.6919 21.6802 28 22.8298 28 24V25.3334H19.9067ZM10.6667 17.3334C12.4348 17.3334 14.1305 18.0357 15.3807 19.286C16.631 20.5362 17.3333 22.2319 17.3333 24V25.3334H4V24C4 22.2319 4.70238 20.5362 5.95262 19.286C7.20286 18.0357 8.89856 17.3334 10.6667 17.3334Z" fill="#4094F7"/>
</svg>
